<svg preserveAspectRatio="none" width="100%" height="100%" overflow="visible" style="display: block;" viewBox="0 0 23.9409 26" fill="none" xmlns="http://www.w3.org/2000/svg">
<g id="Group">
<path id="Vector" d="M23.3469 21.9457H20.2972C20.0146 20.32 18.5972 19.0791 16.8925 19.0791C15.1865 19.0791 13.7684 20.3203 13.4853 21.9457H0.593743C0.265759 21.9457 0 22.2114 0 22.5394C0 22.8674 0.265759 23.1332 0.593743 23.1332H13.4853C13.7682 24.7588 15.1865 26 16.8925 26C18.5972 26 20.0146 24.7588 20.2972 23.1332H23.3472C23.6751 23.1332 23.9409 22.8674 23.9409 22.5394C23.9409 22.2114 23.6749 21.9457 23.3469 21.9457ZM16.8925 24.8123C15.6385 24.8123 14.6182 23.7927 14.6182 22.5392C14.6182 21.2859 15.6385 20.2663 16.8925 20.2663C18.1453 20.2663 19.1644 21.2859 19.1644 22.5392C19.1644 23.7927 18.1453 24.8123 16.8925 24.8123Z" fill="var(--fill-0, black)"/>
<path id="Vector_2" d="M0.593743 4.05408H13.4853C13.7682 5.67974 15.1865 6.9209 16.8925 6.9209C18.5972 6.9209 20.0146 5.67974 20.2972 4.05408H23.3472C23.6751 4.05408 23.9409 3.78832 23.9409 3.46033C23.9409 3.13235 23.6751 2.86659 23.3472 2.86659H20.2972C20.0146 1.24092 18.5972 0 16.8925 0C15.1865 0 13.7684 1.24116 13.4853 2.86659H0.593743C0.265759 2.86659 0 3.13235 0 3.46033C0 3.78832 0.265759 4.05408 0.593743 4.05408ZM16.8925 1.18749C18.1453 1.18749 19.1644 2.20706 19.1644 3.46033C19.1644 4.71361 18.145 5.73342 16.8925 5.73342C15.6385 5.73342 14.6182 4.71384 14.6182 3.46033C14.618 2.20706 15.6382 1.18749 16.8925 1.18749Z" fill="var(--fill-0, black)"/>
<path id="Vector_3" d="M23.3469 12.4059H11.1488C10.866 10.7805 9.44835 9.53931 7.74312 9.53931C6.03789 9.53931 4.62027 10.7805 4.33741 12.4059H0.593743C0.265759 12.4059 0 12.6717 0 12.9996C0 13.3276 0.265759 13.5934 0.593743 13.5934H4.33765C4.62027 15.2193 6.03789 16.4607 7.74336 16.4607C9.44882 16.4607 10.8662 15.2193 11.1491 13.5934H23.3472C23.6751 13.5934 23.9409 13.3276 23.9409 12.9996C23.9409 12.6717 23.6749 12.4059 23.3469 12.4059ZM7.74312 15.273C6.48985 15.273 5.47027 14.2532 5.47027 12.9994C5.47027 11.7461 6.48985 10.7266 7.74312 10.7266C8.99639 10.7266 10.016 11.7461 10.016 12.9994C10.016 14.2532 8.99639 15.273 7.74312 15.273Z" fill="var(--fill-0, black)"/>
</g>
</svg>
