<svg preserveAspectRatio="none" width="100%" height="100%" overflow="visible" style="display: block;" viewBox="0 0 24 24" fill="none" xmlns="http://www.w3.org/2000/svg">
<path id="Shape" fill-rule="evenodd" clip-rule="evenodd" d="M23.9946 11.9728C23.9798 5.3687 18.6058 0 12.0003 0C5.3959 0 0.0228011 5.36686 0.00611429 11.9694C0.00590036 11.9745 0.00448432 11.9792 0.00306889 11.9839C0.00153409 11.989 0 11.9941 0 11.9997C0 12.0053 0.00153409 12.0104 0.00306889 12.0155C0.00448432 12.0203 0.00590036 12.025 0.00611429 12.0301C0.022801 18.6332 5.39583 24 12.0003 24C18.6058 24 23.9798 18.6313 23.9946 12.0267C23.9947 12.0221 23.996 12.0179 23.9973 12.0136C23.9986 12.0092 24 12.0047 24 11.9997C24 11.9948 23.9986 11.9903 23.9973 11.9858C23.996 11.9816 23.9947 11.9774 23.9946 11.9728ZM22.3911 11.2171H17.1887C17.3796 8.10878 19.0613 5.89574 19.7852 5.07929C21.2619 6.73995 22.2155 8.86905 22.3911 11.2171ZM12.7829 1.60487V11.2171H15.6473C15.8651 7.57035 17.8492 4.93153 18.6721 3.98822C17.0508 2.63461 15.0129 1.77167 12.7829 1.60487ZM11.2176 11.2171H8.31418C8.09878 7.57379 6.13859 4.93714 5.32361 3.99255C6.94574 2.63665 8.98529 1.77186 11.2176 1.60487V11.2171ZM11.2176 22.3951V12.7824H8.29476C8.11579 14.9417 7.27546 17.3786 5.29304 19.9796C6.92032 21.3507 8.97077 22.2271 11.2176 22.3951ZM12.7829 12.7824H15.667C15.8478 14.9431 16.6976 17.3814 18.7027 19.9839C17.0762 21.3527 15.0275 22.2272 12.7829 22.3951V12.7824ZM6.77384 11.2171C6.58557 8.11814 4.93109 5.90803 4.21075 5.08439C2.73664 6.74428 1.78479 8.87141 1.60945 11.2171H6.77384ZM1.60945 12.7824H6.73658C6.54933 14.603 5.8174 16.6582 4.16986 18.8705C2.71868 17.2172 1.78313 15.1068 1.60945 12.7824ZM17.2262 12.7824C17.4156 14.6044 18.1569 16.6617 19.8255 18.8762C21.2797 17.222 22.2172 15.1095 22.3911 12.7824H17.2262Z" fill="var(--fill-0, black)"/>
</svg>
