<svg preserveAspectRatio="none" width="100%" height="100%" overflow="visible" style="display: block;" viewBox="0 0 14 10" fill="none" xmlns="http://www.w3.org/2000/svg">
<path id="Wifi" fill-rule="evenodd" clip-rule="evenodd" d="M0 2.82956C1.83214 1.07441 4.29358 0 7 0C9.70642 0 12.1679 1.07441 14 2.82956L12.6184 4.24476C11.1404 2.85108 9.16725 2 7 2C4.83275 2 2.85956 2.85108 1.38156 4.24476L0 2.82956H0ZM2.41809 5.30653C3.63017 4.18377 5.23713 3.5 7 3.5C8.76287 3.5 10.3698 4.18377 11.5819 5.30653L10.1989 6.72326C9.34217 5.96124 8.22367 5.5 7 5.5C5.77633 5.5 4.65783 5.96124 3.80115 6.72326L2.41809 5.30653ZM4.84029 7.78771C5.42891 7.29532 6.18079 7 7 7C7.81922 7 8.57109 7.29532 9.15971 7.78771L7 10L4.84029 7.78771H4.84029Z" fill="var(--fill-0, black)"/>
</svg>
