<svg preserveAspectRatio="none" width="100%" height="100%" overflow="visible" style="display: block;" viewBox="0 0 50.9634 48.5671" fill="none" xmlns="http://www.w3.org/2000/svg">
<path id="Star 2" d="M24.585 0.557436C24.9518 -0.18581 26.0116 -0.185813 26.3784 0.557433L33.478 14.9428C33.6237 15.2379 33.9053 15.4425 34.231 15.4898L50.1061 17.7966C50.9264 17.9158 51.2539 18.9238 50.6603 19.5023L39.173 30.6997C38.9373 30.9295 38.8297 31.2605 38.8854 31.5848L41.5972 47.3959C41.7373 48.2128 40.8799 48.8357 40.1462 48.45L25.9471 40.9851C25.6557 40.8319 25.3077 40.8319 25.0164 40.9851L10.8172 48.45C10.0836 48.8357 9.22614 48.2128 9.36625 47.3959L12.078 31.5849C12.1337 31.2605 12.0261 30.9295 11.7905 30.6997L0.303082 19.5023C-0.290435 18.9238 0.0370723 17.9158 0.857293 17.7966L16.7325 15.4898C17.0582 15.4425 17.3397 15.2379 17.4854 14.9428L24.585 0.557436Z" fill="var(--fill-0, #FFE084)"/>
</svg>
