<svg preserveAspectRatio="none" width="100%" height="100%" overflow="visible" style="display: block;" viewBox="0 0 24 24" fill="none" xmlns="http://www.w3.org/2000/svg">
<path id="Shape" fill-rule="evenodd" clip-rule="evenodd" d="M12 0C5.3811 0 0 5.3811 0 12C0 18.6189 5.3811 24 12 24C18.6189 24 24 18.6189 24 12C24 5.3811 18.6189 0 12 0ZM11.5559 5.35276L13.3512 8.46142L11.5559 11.5701H7.96535L6.17008 8.46142L7.96535 5.35276H11.5559ZM6.17008 16.011L7.96535 19.1197H11.5559L13.3512 16.011L11.5559 12.9024H7.96535L6.17008 16.011ZM14.5039 15.3449L12.7087 12.2362L14.5039 9.12756H18.0945L19.8898 12.2362L18.0945 15.3449H14.5039ZM21.0472 12.9024L19.252 16.011L20.5843 18.3213C21.7228 16.7811 22.4551 14.9197 22.6252 12.9024H21.0472ZM21.0472 11.5701L19.252 8.46142L20.7354 5.89134C21.874 7.51181 22.5732 9.46299 22.6583 11.5701H21.0472ZM18.0945 7.79528L19.8378 4.77638C18.4252 3.24094 16.5685 2.12598 14.4756 1.62992L12.7087 4.68661L14.5039 7.79528H18.0945ZM13.0724 1.38898L11.5559 4.01575H7.96535L7.10551 2.52756C8.5748 1.76693 10.2378 1.33228 12 1.33228C12.3638 1.33228 12.7228 1.35118 13.0724 1.38898ZM6.8126 4.68189L5.9622 3.2126C4.31339 4.35118 3 5.93386 2.20157 7.79055H5.01732L6.8126 4.68189ZM1.72913 9.12756H5.0126L6.80787 12.2362L5.0126 15.3449H1.87559C1.52598 14.2913 1.33701 13.1669 1.33701 12C1.33228 11.0031 1.47402 10.0394 1.72913 9.12756ZM5.01732 16.6772H2.4189C3.26457 18.4063 4.56378 19.8709 6.16063 20.915L6.8126 19.7858L5.01732 16.6772ZM7.31339 21.5811L7.96535 20.4567H11.5559L12.8126 22.6346C12.5433 22.6535 12.274 22.6677 12 22.6677C10.3181 22.6677 8.73071 22.2756 7.31339 21.5811ZM12.7087 19.7906L14.2346 22.4315C16.3417 21.978 18.222 20.9008 19.6677 19.4079L18.0945 16.6819H14.5039L12.7087 19.7906Z" fill="var(--fill-0, black)"/>
</svg>
