<svg preserveAspectRatio="none" width="100%" height="100%" overflow="visible" style="display: block;" viewBox="0 0 26.5 11.5" fill="none" xmlns="http://www.w3.org/2000/svg">
<g id="Battery">
<path id="Border" opacity="0.4" d="M4 0.5H20C20.7083 0.5 21.2098 0.500216 21.6016 0.532227C21.9874 0.563766 22.2231 0.623454 22.4082 0.717773C22.7845 0.909508 23.0905 1.21554 23.2822 1.5918C23.3765 1.77691 23.4362 2.01264 23.4678 2.39844C23.4998 2.79023 23.5 3.29168 23.5 4V7.64746C23.5 8.28532 23.4997 8.73683 23.4736 9.09082C23.4479 9.43971 23.399 9.65444 23.3223 9.82422C23.1219 10.267 22.767 10.6219 22.3242 10.8223C22.1544 10.899 21.9397 10.9479 21.5908 10.9736C21.2368 10.9997 20.7853 11 20.1475 11H4C3.29168 11 2.79023 10.9998 2.39844 10.9678C2.01264 10.9362 1.77691 10.8765 1.5918 10.7822C1.21554 10.5905 0.909508 10.2845 0.717773 9.9082C0.623454 9.72309 0.563766 9.48736 0.532227 9.10156C0.500215 8.70977 0.5 8.20832 0.5 7.5V4C0.5 3.29168 0.500215 2.79023 0.532227 2.39844C0.563766 2.01264 0.623454 1.77691 0.717773 1.5918C0.909508 1.21554 1.21554 0.909508 1.5918 0.717773C1.77691 0.623454 2.01264 0.563766 2.39844 0.532227C2.59443 0.516213 2.81808 0.508003 3.08105 0.503906L4 0.5Z" stroke="var(--stroke-0, white)"/>
<path id="Nub" opacity="0.4" fill-rule="evenodd" clip-rule="evenodd" d="M25 7.87398C25.8626 7.65196 26.5 6.86891 26.5 5.93699C26.5 5.00507 25.8626 4.22202 25 4V7.87398Z" fill="var(--fill-0, white)"/>
<path id="Charge" fill-rule="evenodd" clip-rule="evenodd" d="M2 2.5C2 2.22386 2.22386 2 2.5 2H21.5C21.7761 2 22 2.22386 22 2.5V9C22 9.27614 21.7761 9.5 21.5 9.5H2.5C2.22386 9.5 2 9.27614 2 9V2.5Z" fill="var(--fill-0, white)"/>
</g>
</svg>
