<svg preserveAspectRatio="none" width="100%" height="100%" overflow="visible" style="display: block;" viewBox="0 0 24 24" fill="none" xmlns="http://www.w3.org/2000/svg">
<path id="Shape" fill-rule="evenodd" clip-rule="evenodd" d="M23.7521 22.4948L18.0622 17.1178C22.049 13.3063 22.1705 7.18801 18.3378 3.23636C14.5052 -0.715278 8.07737 -1.09906 3.75423 2.36563C-0.568907 5.83032 -1.25448 11.915 2.19879 16.1707C5.65206 20.4264 12.0197 21.3441 16.6459 18.2529L22.4466 23.7645C22.8106 24.0867 23.3777 24.0772 23.7295 23.7429C24.0812 23.4087 24.0912 22.8699 23.7521 22.5241V22.4948ZM2.00859 10.0967C2.00859 5.57281 5.86837 1.90545 10.6296 1.90545C15.3909 1.90545 19.2507 5.57281 19.2507 10.0967C19.2507 14.6206 15.3909 18.288 10.6296 18.288C5.86837 18.288 2.00859 14.6206 2.00859 10.0967Z" fill="var(--fill-0, white)"/>
</svg>
