<svg preserveAspectRatio="none" width="100%" height="100%" overflow="visible" style="display: block;" viewBox="0 0 17.6842 10" fill="none" xmlns="http://www.w3.org/2000/svg">
<path id="Mobile Signal" fill-rule="evenodd" clip-rule="evenodd" d="M15.4689 0C14.9166 0 14.4689 0.447715 14.4689 1V9C14.4689 9.55229 14.9166 10 15.4689 10H16.6842C17.2365 10 17.6842 9.55228 17.6842 9V1C17.6842 0.447715 17.2365 0 16.6842 0H15.4689ZM9.64593 3C9.64593 2.44772 10.0936 2 10.6459 2H11.8612C12.4135 2 12.8612 2.44772 12.8612 3V9C12.8612 9.55229 12.4135 10 11.8612 10H10.6459C10.0936 10 9.64593 9.55229 9.64593 9V3ZM5.82297 4C5.27068 4 4.82297 4.44772 4.82297 5V9C4.82297 9.55228 5.27068 10 5.82297 10H7.03828C7.59056 10 8.03828 9.55228 8.03828 9V5C8.03828 4.44772 7.59056 4 7.03828 4H5.82297ZM1 5.5C0.447715 5.5 0 5.94772 0 6.5V9C0 9.55229 0.447716 10 1 10H2.21531C2.7676 10 3.21531 9.55229 3.21531 9V6.5C3.21531 5.94772 2.7676 5.5 2.21531 5.5H1Z" fill="var(--fill-0, white)"/>
</svg>
