<svg preserveAspectRatio="none" width="100%" height="100%" overflow="visible" style="display: block;" viewBox="0 0 16.9442 17.9665" fill="none" xmlns="http://www.w3.org/2000/svg">
<g id="Group">
<path id="Shape" fill-rule="evenodd" clip-rule="evenodd" d="M16.4597 0.0874144C16.6706 0.105096 16.8446 0.292522 16.8647 0.515312C17.0927 2.98754 16.7593 6.25433 16.7416 6.42793L16.7408 6.43515C16.269 9.7381 15.1546 12.3338 13.4312 14.155C11.7111 15.9762 9.25147 17.1538 6.12588 17.6524C6.0154 17.6704 5.90102 17.6903 5.78129 17.7111C4.74406 17.8916 3.30538 18.1419 0.527256 17.7868C0.313083 17.7585 0.14576 17.5782 0.118989 17.3554L0.118847 17.3542C0.103546 17.2249 -0.207481 14.5972 0.242807 11.4355C0.714658 8.1326 1.82903 5.53692 3.55245 3.71571C5.27588 1.89802 7.73552 0.72042 10.8611 0.221796C10.9013 0.214723 13.7525 -0.167202 16.4597 0.0874144ZM1.056 12.5849C0.871941 14.5016 0.958949 16.1212 1.01584 16.8355C2.72494 17.0429 4.14369 16.8897 4.91252 16.8066L5.03828 16.7931L1.056 12.5849ZM12.7619 13.4477C11.2259 15.0709 9.02391 16.1389 6.21623 16.6234L1.21328 11.3401C1.67509 8.36954 2.68572 6.04262 4.22174 4.42297C5.75442 2.79979 7.95639 1.73182 10.7674 1.2438L15.7704 6.53064C15.3086 9.50117 14.2979 11.8281 12.7619 13.4477ZM11.9454 1.07759L15.9277 5.28584C16.1117 3.36561 16.0247 1.7495 15.9678 1.03516C14.0303 0.841744 12.8217 0.978506 12.0757 1.06293C12.0306 1.06804 11.9872 1.07295 11.9454 1.07759Z" fill="var(--fill-0, black)"/>
<path id="Path" d="M10.3357 5.7491C10.1517 5.5546 9.85383 5.5546 9.66978 5.7491C9.48572 5.9436 9.48572 6.25834 9.66978 6.45284L9.92076 6.71806L9.19123 7.48899L8.94025 7.22376C8.75619 7.02926 8.45836 7.02926 8.2743 7.22376C8.09025 7.41826 8.09025 7.73299 8.2743 7.92749L8.52529 8.19272L7.79576 8.96364L7.54478 8.69842C7.36072 8.50392 7.06289 8.50392 6.87883 8.69842C6.69478 8.89292 6.69478 9.20765 6.87883 9.40215L7.12982 9.66737L6.39694 10.4454L6.14596 10.1801C5.9619 9.98565 5.66407 9.98565 5.48001 10.1801C5.29596 10.3746 5.29596 10.6894 5.48001 10.8839L5.731 11.1491L5.13198 11.7821C4.94793 11.9766 4.94793 12.2913 5.13198 12.4858C5.32273 12.6874 5.62056 12.6733 5.79793 12.4858L6.39694 11.8528L6.64793 12.1181C6.77509 12.2524 7.04281 12.4045 7.31387 12.1181C7.49793 11.9236 7.49793 11.6088 7.31387 11.4143L7.06289 11.1491L7.79241 10.3782L8.0434 10.6434C8.17056 10.7778 8.43828 10.9299 8.70934 10.6434C8.8934 10.4489 8.8934 10.1342 8.70934 9.93967L8.45836 9.67445L9.18789 8.90352L9.43887 9.16875C9.56604 9.30313 9.83375 9.45519 10.1048 9.16875C10.2889 8.97425 10.2889 8.65952 10.1048 8.46502L9.85383 8.19979L10.5834 7.42887L10.8343 7.69409C10.9615 7.82848 11.2292 7.98054 11.5003 7.69409C11.6843 7.49959 11.6843 7.18486 11.5003 6.99036L11.2493 6.72514L11.8483 6.09213C12.0324 5.89763 12.0324 5.5829 11.8483 5.3884C11.6643 5.1939 11.3664 5.1939 11.1824 5.3884L10.5834 6.0214L10.3357 5.7491Z" fill="var(--fill-0, black)"/>
</g>
</svg>
