<svg preserveAspectRatio="none" width="100%" height="100%" overflow="visible" style="display: block;" viewBox="0 0 20 20" fill="none" xmlns="http://www.w3.org/2000/svg">
<path id="Shape" fill-rule="evenodd" clip-rule="evenodd" d="M9.99851 0C12.6721 0 15.1843 1.03937 17.0744 2.92913C18.9644 4.8189 20.0039 7.33071 20 10C20 12.6693 18.9605 15.1811 17.0704 17.0709C15.1843 18.9606 12.6721 20 9.99851 20C7.32883 20 4.81665 18.9606 2.92661 17.0709C-0.975537 13.1732 -0.975537 6.82677 2.92661 2.92913C4.81665 1.03937 7.32489 0 9.99851 0ZM18.8069 8.77953C18.547 6.87008 17.6729 5.10236 16.2868 3.71654C14.6094 2.03543 12.3768 1.11024 9.99851 1.11417C9.30943 1.11417 8.63217 1.19291 7.97459 1.34646C8.4786 4.85039 10.853 6.98425 15.0583 7.68898C16.342 7.90157 17.5981 8.27165 18.8069 8.77953ZM1.3437 7.97638C4.84421 8.48032 6.97838 10.8543 7.68321 15.0551C7.89978 16.3386 8.26597 17.5945 8.77392 18.8031C6.86419 18.5433 5.09622 17.6732 3.71019 16.2835C1.46183 14.0354 0.674311 10.8701 1.3437 7.97638ZM10.0261 18.8898C12.3926 18.8819 14.6134 17.9606 16.2868 16.2874C17.9603 14.6142 18.8856 12.3937 18.8896 10.0276C17.6059 9.42913 16.2553 9.01181 14.8732 8.77953C9.17162 7.82677 7.35639 4.51969 6.8957 1.66535C5.71442 2.1063 4.63158 2.79528 3.71413 3.7126C2.78092 4.64567 2.09972 5.73622 1.67052 6.89764C4.52527 7.35827 7.8289 9.17717 8.77786 14.874C9.01018 16.2559 9.4315 17.6063 10.0261 18.8898Z" fill="var(--fill-0, black)"/>
</svg>
